<svg width="107" height="86" fill="none" xmlns="http://www.w3.org/2000/svg"><path fill-rule="evenodd" clip-rule="evenodd" d="M0 39.608v13.067l18.375-6.534V66.15l16.333-6.534V39.608l18.375-6.533 18.375 6.533v20.008L87.79 66.15V46.14l18.375 6.534V39.608l-18.375-6.533v-6.942l18.375 6.534V19.6L71.458 6.533v20.008l-18.375-6.533-18.375 6.534V19.6l18.375-6.533V0L18.375 13.067v20.008L0 39.608Z" fill="#403700"/><path fill-rule="evenodd" clip-rule="evenodd" d="m71.458 52.675-18.375 6.533-18.375-6.533v-6.942l18.375 6.534V39.2L18.375 26.133v20.009L0 39.608v13.067l18.375 6.533v20.008l16.333 6.534V65.74l18.375 6.534 18.375-6.534V85.75l16.333-6.533V59.208l18.375-6.533V39.608l-18.375 6.533V39.2l18.375-6.534V19.6L71.458 32.666v20.009Z" fill="#D4AF37"/></svg>
