<?xml version="1.0" standalone="no"?>
<!DOCTYPE svg PUBLIC "-//W3C//DTD SVG 20010904//EN"
 "http://www.w3.org/TR/2001/REC-SVG-20010904/DTD/svg10.dtd">
<svg version="1.0" xmlns="http://www.w3.org/2000/svg"
 width="856.000000pt" height="856.000000pt" viewBox="0 0 856.000000 856.000000"
 preserveAspectRatio="xMidYMid meet">
<metadata>
Created by potrace 1.14, written by Peter Selinger 2001-2017
</metadata>
<g transform="translate(0.000000,856.000000) scale(0.100000,-0.100000)"
fill="#000000" stroke="none">
<path d="M4095 7663 c-77 -30 -144 -55 -150 -56 -11 -3 -117 -43 -150 -58 -28
-12 -208 -80 -220 -83 -11 -2 -119 -42 -145 -53 -8 -3 -17 -7 -20 -8 -3 -1
-18 -7 -33 -13 -16 -7 -35 -12 -43 -12 -8 0 -14 -4 -14 -10 0 -5 -3 -9 -7 -9
-5 1 -11 0 -15 -1 -5 -1 -11 -3 -15 -5 -5 -1 -15 -4 -23 -8 -8 -3 -114 -42
-235 -87 -121 -45 -229 -85 -240 -90 -11 -5 -58 -23 -105 -40 -47 -17 -96 -36
-110 -42 -14 -5 -56 -21 -95 -35 -38 -13 -79 -28 -90 -33 -11 -5 -87 -34 -170
-65 -82 -30 -167 -62 -187 -70 -21 -8 -57 -22 -80 -31 -24 -9 -52 -20 -63 -24
-11 -5 -47 -18 -80 -30 -33 -11 -69 -25 -80 -29 -20 -9 -166 -64 -175 -67 -3
0 -18 -6 -33 -12 -16 -7 -33 -12 -38 -12 -8 0 -13 -721 -10 -1421 1 -170 0
-187 -16 -192 -14 -4 -149 -52 -253 -90 -8 -3 -60 -21 -115 -40 -55 -19 -163
-58 -240 -85 -77 -28 -162 -58 -190 -67 -27 -9 -54 -20 -60 -25 -5 -4 -12 -8
-15 -8 -11 1 -80 -22 -190 -62 -63 -23 -176 -63 -250 -89 l-135 -47 -3 -525
-2 -524 127 -44 c71 -24 139 -48 153 -54 50 -20 245 -88 262 -92 9 -2 26 -9
38 -15 12 -6 29 -13 38 -15 9 -2 35 -10 57 -18 22 -9 105 -39 185 -67 80 -28
152 -54 160 -57 8 -3 17 -7 20 -8 19 -5 89 -28 105 -35 11 -5 88 -33 170 -62
l150 -54 2 -220 c1 -120 2 -481 2 -802 1 -546 2 -583 19 -588 9 -3 33 -12 52
-20 51 -20 94 -37 100 -39 10 -3 46 -18 125 -50 44 -18 118 -48 165 -66 47
-18 89 -36 95 -41 5 -4 15 -8 22 -8 7 0 32 -9 56 -19 23 -11 96 -41 162 -66
66 -26 131 -52 145 -58 14 -6 27 -11 30 -12 9 -3 44 -17 125 -50 44 -18 87
-35 95 -38 8 -3 38 -14 65 -25 l51 -20 -1 799 c0 439 1 799 2 799 5 0 316
-110 348 -123 17 -6 32 -12 35 -13 3 0 14 -4 25 -8 54 -20 155 -56 200 -71 28
-9 59 -21 70 -27 12 -5 27 -10 35 -12 8 -2 24 -6 35 -10 86 -33 244 -89 365
-131 58 -20 128 -45 155 -55 128 -48 197 -70 213 -66 18 3 33 9 92 31 38 15
218 78 290 102 25 8 54 19 65 23 29 13 294 107 325 115 3 1 12 5 20 8 8 3 42
16 75 27 222 78 342 121 355 127 8 3 17 7 20 8 20 5 147 49 155 54 6 3 15 6
20 7 6 1 17 5 25 8 14 6 16 -75 15 -773 0 -429 2 -789 5 -800 5 -21 8 -21 125
30 98 42 272 109 282 109 7 0 13 5 13 10 0 6 3 9 8 8 6 -2 180 64 307 117 17
6 62 25 100 40 39 15 85 34 102 42 18 7 50 20 70 27 21 8 56 22 78 32 22 10
42 17 45 17 3 0 43 16 90 36 l84 37 1 798 0 799 35 13 c19 6 100 35 180 64 80
28 201 72 270 96 69 25 130 46 135 48 6 2 24 9 40 15 17 7 37 14 45 17 20 5
81 26 340 119 376 134 415 148 420 156 3 4 5 238 4 520 l0 514 -25 11 c-45 22
-74 33 -149 58 -72 23 -142 48 -185 66 -11 5 -54 20 -95 34 -180 61 -226 77
-240 85 -9 5 -30 12 -48 16 -32 7 -44 21 -19 23 6 0 55 16 107 35 225 82 296
108 310 112 8 2 15 4 15 5 0 1 7 3 15 5 8 2 29 9 45 16 17 7 32 13 35 13 12 3
225 79 229 83 3 2 5 237 5 523 l1 520 -60 24 c-33 13 -105 40 -160 61 -55 20
-134 49 -175 65 -41 16 -138 52 -215 80 -77 29 -154 59 -172 66 -17 8 -34 14
-38 14 -4 0 -21 6 -38 14 -34 14 -86 34 -227 86 -47 17 -94 35 -105 40 -17 8
-203 78 -340 127 -45 16 -159 60 -190 73 -47 19 -84 32 -87 29 -2 -1 -14 4
-28 11 -14 8 -29 15 -35 16 -9 2 -72 25 -130 49 -11 4 -24 9 -30 11 -13 3
-303 112 -330 124 -11 5 -49 19 -85 33 -36 13 -87 32 -115 43 -27 10 -52 19
-55 20 -9 2 -44 16 -78 31 -18 8 -45 15 -59 16 l-27 2 0 -790 c-1 -696 -3
-790 -16 -789 -8 1 -80 25 -160 54 -80 28 -221 78 -315 111 -93 33 -186 67
-205 74 -19 7 -120 43 -225 80 -104 36 -208 73 -230 82 -22 8 -65 23 -95 33
-30 10 -93 32 -139 49 l-84 31 -111 -41 c-61 -22 -118 -42 -126 -44 -8 -2 -40
-13 -70 -25 -30 -12 -62 -23 -70 -25 -8 -2 -64 -22 -125 -44 -142 -51 -196
-70 -220 -77 -5 -1 -91 -32 -190 -68 -99 -36 -184 -66 -188 -66 -5 0 -23 -6
-40 -14 -18 -8 -86 -33 -152 -56 -66 -23 -131 -46 -144 -51 -13 -5 -26 -7 -29
-4 -11 10 -8 527 3 541 6 8 87 40 180 73 94 32 197 69 230 81 122 45 194 70
365 130 96 33 191 67 210 75 19 8 127 46 240 86 113 39 212 75 220 80 13 7 15
76 15 528 1 287 -2 521 -5 520 -3 -1 -68 -26 -145 -56z m2952 -2059 c-9 -9
-28 6 -21 18 4 6 10 6 17 -1 6 -6 8 -13 4 -17z m-2749 -550 c20 -8 38 -15 39
-15 5 1 169 -56 258 -89 99 -37 280 -101 295 -105 8 -2 53 -18 100 -35 47 -17
110 -40 140 -50 30 -10 100 -35 155 -55 55 -20 105 -38 110 -39 6 -2 17 -6 25
-9 8 -4 71 -26 140 -51 69 -24 132 -47 140 -50 13 -5 15 -73 15 -527 l0 -521
-50 -20 c-28 -10 -75 -28 -105 -38 -30 -10 -118 -41 -195 -69 -530 -189 -693
-247 -792 -281 -61 -21 -122 -44 -135 -51 -12 -7 -25 -12 -28 -12 -8 1 -19 -3
-95 -30 l-70 -24 -65 24 c-36 13 -83 30 -105 38 -22 7 -92 32 -155 55 -63 23
-162 57 -220 77 -58 19 -109 39 -115 44 -5 5 -16 9 -24 9 -9 0 -38 9 -66 20
-58 22 -255 93 -270 97 -5 1 -28 9 -50 17 -80 29 -271 98 -332 119 -61 20 -63
22 -64 56 -3 120 0 513 4 517 4 4 45 -9 112 -36 41 -16 90 -35 95 -35 11 -2
56 -17 75 -25 18 -9 237 -88 260 -94 6 -2 17 -6 25 -9 8 -3 94 -33 190 -67 96
-34 198 -70 225 -80 28 -10 91 -33 140 -50 109 -38 211 -75 283 -101 30 -10
55 -19 56 -19 1 0 2 235 1 521 0 512 0 522 -20 530 -32 14 -79 32 -90 35 -15
4 -226 84 -260 99 -16 7 -89 34 -162 61 l-132 48 32 14 c18 8 37 15 42 16 6 2
17 6 25 9 49 18 137 49 150 52 8 2 71 25 140 50 69 25 132 48 140 50 8 2 38
12 65 24 61 25 76 25 123 5z"/>
</g>
</svg>
